<svg id="visual" viewBox="0 0 900 600" width="900" height="600" xmlns="http://www.w3.org/2000/svg" xmlns:xlink="http://www.w3.org/1999/xlink" version="1.1"><rect x="0" y="0" width="900" height="600" fill="#FFFFFF"></rect><path d="M0 392L25 388.5C50 385 100 378 150 391C200 404 250 437 300 439C350 441 400 412 450 383.2C500 354.3 550 325.7 600 335.3C650 345 700 393 750 401.3C800 409.7 850 378.3 875 362.7L900 347L900 601L875 601C850 601 800 601 750 601C700 601 650 601 600 601C550 601 500 601 450 601C400 601 350 601 300 601C250 601 200 601 150 601C100 601 50 601 25 601L0 601Z" fill="#688A7C" stroke-linecap="round" stroke-linejoin="miter"></path></svg>